<svg id="whatsApp" xmlns="http://www.w3.org/2000/svg" width="100" height="100" viewBox="0 0 100 100">
  <rect id="Rectangle_81286" data-name="Rectangle 81286" width="100" height="100" rx="10" fill="#dcf8e6"/>
  <g id="JvsnINJ2CZv_1_" data-name="JvsnINJ2CZv (1)" transform="translate(31.409 31.523)">
    <path id="Path_414474" data-name="Path 414474" d="M36.578,17.82A18,18,0,0,0,18.7.477h-.088A18,18,0,0,0,2.8,27.116L1.2,36.642a.139.139,0,0,0,.137.157h.027l9.422-2.1a18.013,18.013,0,0,0,7.8,1.774h.515A18,18,0,0,0,36.578,17.82ZM19.018,33.347h-.425a14.884,14.884,0,0,1-6.859-1.665l-.482-.252-6.39,1.51,1.179-6.465-.274-.464A14.883,14.883,0,0,1,18.181,3.606h.433a14.877,14.877,0,0,1,.42,29.747Z" fill="#25d366"/>
    <path id="Path_414475" data-name="Path 414475" d="M10.791,8.168A1.663,1.663,0,0,0,9.608,8.7a5.076,5.076,0,0,0-1.7,3.722,8.786,8.786,0,0,0,1.7,4.732c.217.309,2.97,5.112,7.505,7.06,2.665,1.148,3.834,1.346,4.591,1.346.312,0,.548-.033.794-.047a4.567,4.567,0,0,0,3.115-2.056,3.771,3.771,0,0,0,.329-2.14c-.108-.183-.4-.314-.849-.548s-2.631-1.4-3.042-1.566a1.387,1.387,0,0,0-.484-.126.672.672,0,0,0-.539.321c-.365.455-1.2,1.442-1.484,1.727a.668.668,0,0,1-.493.23,1.179,1.179,0,0,1-.495-.133A11.526,11.526,0,0,1,15,18.844a13.642,13.642,0,0,1-2.417-3.215c-.248-.46,0-.7.226-.913s.469-.513.7-.771a3.1,3.1,0,0,0,.475-.73.835.835,0,0,0-.013-.792c-.108-.23-.913-2.492-1.291-3.4-.307-.776-.672-.8-.991-.825-.263-.018-.564-.027-.865-.037h-.038" transform="translate(1.542 1.62)" fill="#25d366"/>
  </g>
</svg>
