<svg id="viber" xmlns="http://www.w3.org/2000/svg" width="18" height="18" viewBox="0 0 18 18">
  <g id="Group_79634" data-name="Group 79634" transform="translate(-495 -485)" opacity="0.8">
    <g id="Rectangle_77485" data-name="Rectangle 77485" transform="translate(495 485)" fill="#3822d4" stroke="#666" stroke-width="1" opacity="0">
      <rect width="18" height="18" stroke="none"/>
      <rect x="0.5" y="0.5" width="17" height="17" fill="none"/>
    </g>
    <path id="Union_155" data-name="Union 155" d="M-1317.714,2589.85c-.443-.133-.421-.82-.421-.82v-1.706c-3.964-1.13-3.9-5.228-3.855-7.421s.466-3.944,1.684-5.163c2.171-1.994,6.624-1.728,6.624-1.728,3.789.021,5.473,1.263,5.894,1.639,1.4,1.2,2.149,3.878,1.617,8.13a4.952,4.952,0,0,1-4.144,4.676,15.078,15.078,0,0,1-5.028.377c-.288.354-.688.8-.976,1.107-.461.48-.755.944-1.186.944A.694.694,0,0,1-1317.714,2589.85Zm-1.639-14.246a6.069,6.069,0,0,0-1.4,4.342c-.022,1.84-.222,5.341,3.124,6.27,0,0-.022,2.615-.022,2.836,0,.155.022.266.11.288a.337.337,0,0,0,.244-.111c.554-.553,2.26-2.615,2.26-2.615a14.445,14.445,0,0,0,4.32-.375c.466-.133,2.969-.356,3.39-3.79.421-3.522-.177-5.937-1.329-6.957-.355-.331-1.883-1.284-5.074-1.307,0,0-.195-.013-.518-.013C-1315.345,2574.173-1317.932,2574.319-1319.353,2575.6Zm7.865,9.371a1.278,1.278,0,0,1-.288-.044,10.168,10.168,0,0,1-1.839-.842,11.514,11.514,0,0,1-1.529-1.019,5.622,5.622,0,0,1-.686-.621l-.089-.088a8.169,8.169,0,0,1-.62-.687,11.4,11.4,0,0,1-1.019-1.527,8.93,8.93,0,0,1-.842-1.84,1.073,1.073,0,0,1-.045-.288v-.089a1.186,1.186,0,0,1,.333-.665,3.724,3.724,0,0,1,.8-.663.6.6,0,0,1,.8.132s.4.487.576.732c.155.22.376.576.509.775a.735.735,0,0,1-.11.886l-.4.311a.59.59,0,0,0-.176.465,4.062,4.062,0,0,0,2.747,2.768.587.587,0,0,0,.464-.177l.31-.4a.7.7,0,0,1,.886-.133,6.686,6.686,0,0,1,.777.51c.244.177.731.576.731.576a.606.606,0,0,1,.133.8,2.785,2.785,0,0,1-.665.8,1.342,1.342,0,0,1-.664.332Zm1.359-4.364a4.056,4.056,0,0,0-1.154-3.037,3.935,3.935,0,0,0-2.842-1.114.214.214,0,0,1-.213-.214.213.213,0,0,1,.213-.212,4.346,4.346,0,0,1,3.14,1.235,4.468,4.468,0,0,1,1.282,3.343.214.214,0,0,1-.213.214A.214.214,0,0,1-1310.129,2580.611Zm-.9-.229a.214.214,0,0,1-.207-.22,2.5,2.5,0,0,0-.631-1.8,2.668,2.668,0,0,0-1.853-.817.213.213,0,0,1-.2-.229.213.213,0,0,1,.229-.2,3.116,3.116,0,0,1,2.135.955,2.92,2.92,0,0,1,.742,2.1.212.212,0,0,1-.212.207Zm-1.1-.355a.213.213,0,0,1-.213-.2,1.021,1.021,0,0,0-1.083-1.128.214.214,0,0,1-.2-.224.214.214,0,0,1,.225-.2,1.446,1.446,0,0,1,1.487,1.531.214.214,0,0,1-.2.225Z" transform="translate(1818 -2087.442)" fill="#3822d4"/>
  </g>
</svg>
