<?xml version="1.0" encoding="UTF-8"?><svg id="Layer_1" xmlns="http://www.w3.org/2000/svg" viewBox="0 0 101.38 34"><defs><style>.cls-1{fill:#00c2a4;}.cls-2{fill:#3822d4;}.cls-3{fill:#353056;}</style></defs><path class="cls-1" d="M29,0H5C2.24,0,0,2.24,0,5v24c0,2.76,2.24,5,5,5h24c2.76,0,5-2.24,5-5V5c0-2.76-2.24-5-5-5ZM21.08,7.29c1.33,0,2.42,1.08,2.42,2.41s-1.08,2.41-2.42,2.41-2.41-1.08-2.41-2.41,1.08-2.41,2.41-2.41ZM12.67,7.29c1.33,0,2.42,1.08,2.42,2.41s-1.08,2.41-2.42,2.41-2.42-1.08-2.42-2.41,1.08-2.41,2.42-2.41ZM12.68,27.98h-.01c-4.07,0-7.38-3.3-7.38-7.37h0c0-4.09,3.3-7.39,7.37-7.39h.01v3.04c-2.4,0-4.35,1.95-4.35,4.35s1.95,4.35,4.35,4.35,4.35-1.95,4.35-4.35h3.04c0,4.07-3.3,7.38-7.37,7.38ZM21.08,28.23h0v-3.04c2.54,0,4.6-2.06,4.6-4.6s-2.06-4.6-4.6-4.6-4.6,2.06-4.6,4.6h-3.04c0-4.22,3.42-7.64,7.64-7.64s7.64,3.42,7.64,7.64-3.42,7.64-7.64,7.64Z"/><path class="cls-2" d="M46.94,24.75l-3.49-5.28h-.18c-.33,0-.81-.01-1.43-.04v5.32h-2.98v-14.11c1.41-.3,2.82-.46,4.23-.46,2.02,0,3.52.38,4.52,1.14.99.76,1.49,1.92,1.49,3.49,0,1.02-.23,1.88-.71,2.58-.48.7-1.17,1.23-2.08,1.58l3.89,5.78h-3.26ZM41.83,17.06c.47.05.96.07,1.45.07,1.01,0,1.76-.18,2.24-.54.48-.36.72-.95.72-1.76s-.23-1.38-.69-1.76c-.46-.38-1.16-.56-2.1-.56-.59,0-1.13.05-1.62.14v4.42Z"/><path class="cls-2" d="M59.31,19.49c0-1.81-.36-3.19-1.09-4.14-.73-.94-1.8-1.41-3.21-1.41-1.48,0-2.63.47-3.43,1.4-.8.94-1.2,2.29-1.2,4.06,0,1.3.19,2.36.58,3.18.39.82.98,1.42,1.78,1.8.8.38,1.84.57,3.11.57.48,0,.95-.03,1.42-.09.47-.06.97-.15,1.5-.28v-2.32c-.97.23-1.81.35-2.54.35-.69,0-1.23-.07-1.63-.22-.4-.15-.7-.38-.89-.71-.19-.33-.3-.78-.33-1.36h5.93v-.84ZM53.37,18.55c0-.67.07-1.21.2-1.59.13-.39.3-.66.53-.83.23-.16.52-.24.88-.24s.64.08.86.24c.22.16.39.44.51.83.12.39.18.92.18,1.59h-3.16Z"/><path class="cls-3" d="M60.85,24.75v-15.71h2.98v15.71h-2.98Z"/><path class="cls-3" d="M66.03,12.16c-.31-.28-.46-.68-.46-1.2s.15-.93.46-1.21c.31-.28.77-.42,1.4-.42s1.08.14,1.39.43c.31.29.46.69.46,1.21s-.15.92-.46,1.2c-.31.28-.77.42-1.39.42s-1.09-.14-1.4-.42ZM65.92,24.75v-10.64h2.98v10.64h-2.98Z"/><path class="cls-3" d="M71.01,14.12h2.47l.21,1.11h.14c.36-.42.79-.74,1.28-.96.49-.22,1.03-.33,1.62-.33,1.01,0,1.81.32,2.41.95.59.63.89,1.64.89,3.01v6.85h-2.98v-6.65c0-.56-.12-.95-.35-1.19-.23-.23-.56-.35-1-.35-.32,0-.64.07-.95.2-.31.13-.57.33-.77.59v7.4h-2.98v-10.64Z"/><path class="cls-3" d="M88.75,24.75l-2.74-4.29h-.99v4.29h-2.98v-15.71h2.98v9.07h.97l2.5-4h3.14l-3.14,5.11,3.49,5.52h-3.23Z"/><path class="cls-3" d="M98.41,9.04v4.97c-.34-.04-.62-.06-.85-.06-1.88,0-3.28.48-4.2,1.44-.92.96-1.39,2.38-1.39,4.25,0,1.21.18,2.2.54,2.99.36.79.84,1.37,1.44,1.75.6.37,1.28.56,2.03.56.57,0,1.07-.12,1.51-.35.43-.24.78-.57,1.04-.99h.14l.2,1.15h2.51v-15.71h-2.97ZM98.41,21.84c-.18.21-.4.36-.66.47-.26.11-.53.16-.82.16-.41,0-.76-.09-1.05-.27-.28-.18-.5-.49-.66-.94-.16-.45-.23-1.07-.23-1.86s.09-1.4.27-1.86c.18-.46.44-.8.79-1,.35-.2.8-.31,1.35-.31.29,0,.63.03,1,.1v5.51Z"/></svg>